<svg width="128" height="46" viewBox="0 0 128 46" fill="none" xmlns="http://www.w3.org/2000/svg">
<path d="M22.9403 9.92157L18.7026 35.9558H12.6135L14.1614 26.5546H7.60229L6.08823 35.9558H0L4.27154 9.92157H10.3269L8.51017 20.9138H15.0693L16.8869 9.92157H22.9403ZM35.4286 35.9558L35.6306 30.2788H30.0133L28.3657 35.9558H21.9401L30.5856 9.92157H41.685L41.8203 35.9558H35.4286ZM34.0498 16.2497L31.3929 25.4335H35.7998L36.1691 16.2497H34.0498ZM67.9442 9.92157L63.7056 35.9558H57.6165L53.3797 21.7102L51.0921 35.9567H45.0039L49.2754 9.92157H55.5319L59.7029 23.2282L61.888 9.92157H67.9442ZM82.1486 9.92157C85.0853 9.92157 87.1826 10.7171 88.4379 12.3082C89.3577 13.5132 89.8167 15.0204 89.8167 16.8279C89.8167 17.4791 89.7618 18.1655 89.6494 18.8889L88.3374 26.9524C87.8894 29.6763 86.7895 31.8582 85.0405 33.497C83.2914 35.1368 81.0267 35.9558 78.2455 35.9558H68.4571L72.7296 9.92157H82.1486ZM80.0283 15.5624H77.8423L75.4542 30.3149H78.6496C79.7038 30.3149 80.5221 30.0136 81.1054 29.4111C81.7106 28.7843 82.1257 27.7723 82.3488 26.3742L83.3253 20.4438C83.4101 19.966 83.4551 19.4822 83.4597 18.9971C83.4597 16.707 82.3168 15.5624 80.0283 15.5624ZM107.845 35.9558H90.9586L95.232 9.92157H112.118L111.176 15.5624H100.345L99.5712 20.4438H108.518L107.577 26.0847H98.6295L97.9566 30.3149H108.788L107.845 35.9558ZM127.058 35.9558H111.719L115.992 9.92157H122.046L118.716 30.3149H128L127.058 35.9558ZM67.6571 40.5882H126.171L124.343 46H65.8286L67.6571 40.5882ZM6.4 0H70.4L68.5714 5.41176H4.57143L6.4 0Z" fill="white"/>
</svg>
